<svg xmlns="http://www.w3.org/2000/svg" width="920" height="560" viewBox="0 0 920 560">
<rect width="100%" height="100%" fill="white"/>
<line x1="70" y1="490" x2="850" y2="490" stroke="#333"/>
<line x1="70" y1="70" x2="70" y2="490" stroke="#333"/>
<text x="460.0" y="542" text-anchor="middle" font-family="sans-serif" font-size="15">IFEval prompt strict delta vs r004 (less negative is better)</text>
<text x="22" y="280.0" text-anchor="middle" transform="rotate(-90 22 280.0)" font-family="sans-serif" font-size="15">Intended-axis delta vs r004</text>
<text x="460.0" y="34" text-anchor="middle" font-family="sans-serif" font-size="18">Stage4 Pareto View: intended gain vs guardrail regression</text>
<line x1="70.0" y1="490" x2="70.0" y2="495" stroke="#333"/>
<text x="70.0" y="512" text-anchor="middle" font-family="sans-serif" font-size="11">-0.12</text>
<line x1="200.0" y1="490" x2="200.0" y2="495" stroke="#333"/>
<text x="200.0" y="512" text-anchor="middle" font-family="sans-serif" font-size="11">-0.10</text>
<line x1="330.0" y1="490" x2="330.0" y2="495" stroke="#333"/>
<text x="330.0" y="512" text-anchor="middle" font-family="sans-serif" font-size="11">-0.08</text>
<line x1="460.0" y1="490" x2="460.0" y2="495" stroke="#333"/>
<text x="460.0" y="512" text-anchor="middle" font-family="sans-serif" font-size="11">-0.06</text>
<line x1="590.0" y1="490" x2="590.0" y2="495" stroke="#333"/>
<text x="590.0" y="512" text-anchor="middle" font-family="sans-serif" font-size="11">-0.04</text>
<line x1="720.0" y1="490" x2="720.0" y2="495" stroke="#333"/>
<text x="720.0" y="512" text-anchor="middle" font-family="sans-serif" font-size="11">-0.02</text>
<line x1="850.0" y1="490" x2="850.0" y2="495" stroke="#333"/>
<text x="850.0" y="512" text-anchor="middle" font-family="sans-serif" font-size="11">0.00</text>
<line x1="65" y1="490.0" x2="70" y2="490.0" stroke="#333"/>
<text x="60" y="494.0" text-anchor="end" font-family="sans-serif" font-size="11">-0.02</text>
<line x1="65" y1="396.7" x2="70" y2="396.7" stroke="#333"/>
<text x="60" y="400.7" text-anchor="end" font-family="sans-serif" font-size="11">0.00</text>
<line x1="65" y1="303.3" x2="70" y2="303.3" stroke="#333"/>
<text x="60" y="307.3" text-anchor="end" font-family="sans-serif" font-size="11">0.02</text>
<line x1="65" y1="210.0" x2="70" y2="210.0" stroke="#333"/>
<text x="60" y="214.0" text-anchor="end" font-family="sans-serif" font-size="11">0.04</text>
<line x1="65" y1="116.7" x2="70" y2="116.7" stroke="#333"/>
<text x="60" y="120.7" text-anchor="end" font-family="sans-serif" font-size="11">0.06</text>
<circle cx="443.7" cy="178.9" r="7" fill="#1f77b4" opacity="0.85"/>
<text x="453.7" y="182.9" font-family="sans-serif" font-size="11">r028 step50</text>
<circle cx="105.2" cy="272.2" r="7" fill="#1f77b4" opacity="0.85"/>
<text x="115.2" y="276.2" font-family="sans-serif" font-size="11">r028 final</text>
<circle cx="511.5" cy="169.7" r="7" fill="#d62728" opacity="0.85"/>
<text x="521.5" y="173.7" font-family="sans-serif" font-size="11">r029 step50</text>
<circle cx="376.0" cy="178.3" r="7" fill="#d62728" opacity="0.85"/>
<text x="386.0" y="182.3" font-family="sans-serif" font-size="11">r029 final</text>
<rect x="436.7" y="187.4" width="14" height="14" fill="#1f77b4" opacity="0.85"/>
<text x="453.7" y="198.4" font-family="sans-serif" font-size="11">s3d001 step50</text>
<rect x="165.9" y="249.7" width="14" height="14" fill="#1f77b4" opacity="0.85"/>
<text x="182.9" y="260.7" font-family="sans-serif" font-size="11">s3d001 final</text>
<rect x="504.5" y="188.5" width="14" height="14" fill="#d62728" opacity="0.85"/>
<text x="521.5" y="199.5" font-family="sans-serif" font-size="11">s3d002 step50</text>
<rect x="369.0" y="164.9" width="14" height="14" fill="#d62728" opacity="0.85"/>
<text x="386.0" y="175.9" font-family="sans-serif" font-size="11">s3d002 final</text>
</svg>
